<?xml version="1.0" encoding="UTF-8" standalone="no"?>
<!-- Created with Inkscape (http://www.inkscape.org/) -->

<svg
   width="130mm"
   height="45mm"
   viewBox="0 0 130 45"
   version="1.1"
   id="svg1"
   inkscape:version="1.3.2 (1:1.3.2+202311252150+091e20ef0f)"
   sodipodi:docname="BlockDiagram.svg"
   inkscape:export-filename="BlockDiagram.png"
   inkscape:export-xdpi="200"
   inkscape:export-ydpi="200"
   xmlns:inkscape="http://www.inkscape.org/namespaces/inkscape"
   xmlns:sodipodi="http://sodipodi.sourceforge.net/DTD/sodipodi-0.dtd"
   xmlns="http://www.w3.org/2000/svg"
   xmlns:svg="http://www.w3.org/2000/svg">
  <sodipodi:namedview
     id="namedview1"
     pagecolor="#ffffff"
     bordercolor="#666666"
     borderopacity="1.0"
     inkscape:showpageshadow="2"
     inkscape:pageopacity="0.0"
     inkscape:pagecheckerboard="0"
     inkscape:deskcolor="#d1d1d1"
     inkscape:document-units="mm"
     showgrid="true"
     inkscape:zoom="1.5679012"
     inkscape:cx="285.73228"
     inkscape:cy="78.448819"
     inkscape:window-width="1839"
     inkscape:window-height="1056"
     inkscape:window-x="41"
     inkscape:window-y="0"
     inkscape:window-maximized="1"
     inkscape:current-layer="layer1"
     inkscape:export-bgcolor="#ffffffff">
    <inkscape:grid
       id="grid1"
       units="mm"
       originx="0"
       originy="0"
       spacingx="1"
       spacingy="1"
       empcolor="#0099e5"
       empopacity="0.30196078"
       color="#0099e5"
       opacity="0.14901961"
       empspacing="5"
       dotted="false"
       gridanglex="30"
       gridanglez="30"
       visible="true" />
  </sodipodi:namedview>
  <defs
     id="defs1">
    <marker
       style="overflow:visible"
       id="marker5"
       refX="0"
       refY="0"
       orient="auto-start-reverse"
       inkscape:stockid="Concave triangle arrow"
       markerWidth="1"
       markerHeight="1"
       viewBox="0 0 1 1"
       inkscape:isstock="true"
       inkscape:collect="always"
       preserveAspectRatio="xMidYMid">
      <path
         transform="scale(0.7)"
         d="M -2,-4 9,0 -2,4 c 2,-2.33 2,-5.66 0,-8 z"
         style="fill:context-stroke;fill-rule:evenodd;stroke:none"
         id="path5" />
    </marker>
    <marker
       style="overflow:visible"
       id="ConcaveTriangle"
       refX="0"
       refY="0"
       orient="auto-start-reverse"
       inkscape:stockid="Concave triangle arrow"
       markerWidth="1"
       markerHeight="1"
       viewBox="0 0 1 1"
       inkscape:isstock="true"
       inkscape:collect="always"
       preserveAspectRatio="xMidYMid">
      <path
         transform="scale(0.7)"
         d="M -2,-4 9,0 -2,4 c 2,-2.33 2,-5.66 0,-8 z"
         style="fill:context-stroke;fill-rule:evenodd;stroke:none"
         id="path7" />
    </marker>
    <filter
       id="a"
       color-interpolation-filters="sRGB"
       x="-0.010993516"
       y="-0.013373975"
       width="1.0311483"
       height="1.0378929">
      <feFlood
         flood-color="rgb(0,0,0)"
         flood-opacity=".5"
         result="flood"
         id="feFlood6" />
      <feComposite
         in="flood"
         in2="SourceGraphic"
         operator="in"
         result="composite1"
         id="feComposite7" />
      <feGaussianBlur
         in="composite"
         result="blur"
         stdDeviation="2"
         id="feGaussianBlur7" />
      <feOffset
         dx="4"
         dy="4"
         result="offset"
         id="feOffset7" />
      <feComposite
         in="SourceGraphic"
         in2="offset"
         result="composite2"
         id="feComposite8" />
    </filter>
    <filter
       id="d"
       color-interpolation-filters="sRGB"
       x="-0.013730331"
       y="-0.010818389"
       width="1.0389026"
       height="1.0306521">
      <feFlood
         flood-color="rgb(0,0,0)"
         flood-opacity=".5"
         result="flood"
         id="feFlood1" />
      <feComposite
         in="flood"
         in2="SourceGraphic"
         operator="in"
         result="composite1"
         id="feComposite1" />
      <feGaussianBlur
         in="composite"
         result="blur"
         stdDeviation="2"
         id="feGaussianBlur1" />
      <feOffset
         dx="4"
         dy="4"
         result="offset"
         id="feOffset1" />
      <feComposite
         in="SourceGraphic"
         in2="offset"
         result="composite2"
         id="feComposite2" />
    </filter>
    <filter
       id="c"
       color-interpolation-filters="sRGB"
       x="-0.010930797"
       y="-0.01411636"
       width="1.0309706"
       height="1.0399964">
      <feFlood
         flood-color="rgb(0,0,0)"
         flood-opacity=".5"
         result="flood"
         id="feFlood2" />
      <feComposite
         in="flood"
         in2="SourceGraphic"
         operator="in"
         result="composite1"
         id="feComposite3" />
      <feGaussianBlur
         in="composite"
         result="blur"
         stdDeviation="2"
         id="feGaussianBlur3" />
      <feOffset
         dx="4"
         dy="4"
         result="offset"
         id="feOffset3" />
      <feComposite
         in="SourceGraphic"
         in2="offset"
         result="composite2"
         id="feComposite4" />
    </filter>
    <filter
       id="b"
       color-interpolation-filters="sRGB"
       x="-0.014210349"
       y="-0.011188811"
       width="1.0402627"
       height="1.0317016">
      <feFlood
         flood-color="rgb(0,0,0)"
         flood-opacity=".5"
         result="flood"
         id="feFlood4" />
      <feComposite
         in="flood"
         in2="SourceGraphic"
         operator="in"
         result="composite1"
         id="feComposite5" />
      <feGaussianBlur
         in="composite"
         result="blur"
         stdDeviation="2"
         id="feGaussianBlur5" />
      <feOffset
         dx="4"
         dy="4"
         result="offset"
         id="feOffset5" />
      <feComposite
         in="SourceGraphic"
         in2="offset"
         result="composite2"
         id="feComposite6" />
    </filter>
    <marker
       style="overflow:visible"
       id="ConcaveTriangle-7"
       refX="0"
       refY="0"
       orient="auto-start-reverse"
       inkscape:stockid="Concave triangle arrow"
       markerWidth="1"
       markerHeight="1"
       viewBox="0 0 1 1"
       inkscape:isstock="true"
       inkscape:collect="always"
       preserveAspectRatio="xMidYMid">
      <path
         transform="scale(0.7)"
         d="M -2,-4 9,0 -2,4 c 2,-2.33 2,-5.66 0,-8 z"
         style="fill:context-stroke;fill-rule:evenodd;stroke:none"
         id="path7-5" />
    </marker>
    <marker
       style="overflow:visible"
       id="marker5-3"
       refX="0"
       refY="0"
       orient="auto-start-reverse"
       inkscape:stockid="Concave triangle arrow"
       markerWidth="1"
       markerHeight="1"
       viewBox="0 0 1 1"
       inkscape:isstock="true"
       inkscape:collect="always"
       preserveAspectRatio="xMidYMid">
      <path
         transform="scale(0.7)"
         d="M -2,-4 9,0 -2,4 c 2,-2.33 2,-5.66 0,-8 z"
         style="fill:context-stroke;fill-rule:evenodd;stroke:none"
         id="path5-3" />
    </marker>
    <marker
       style="overflow:visible"
       id="marker5-3-0"
       refX="0"
       refY="0"
       orient="auto-start-reverse"
       inkscape:stockid="Concave triangle arrow"
       markerWidth="1"
       markerHeight="1"
       viewBox="0 0 1 1"
       inkscape:isstock="true"
       inkscape:collect="always"
       preserveAspectRatio="xMidYMid">
      <path
         transform="scale(0.7)"
         d="M -2,-4 9,0 -2,4 c 2,-2.33 2,-5.66 0,-8 z"
         style="fill:context-stroke;fill-rule:evenodd;stroke:none"
         id="path5-3-9" />
    </marker>
  </defs>
  <g
     inkscape:label="Layer 1"
     inkscape:groupmode="layer"
     id="layer1">
    <g
       id="g34"
       transform="matrix(3.8792746,0,0,3.8792746,111.90225,13.588221)">
      <path
         d="m 0.79845,0.32216 h 1.42886 c 0.26234,0 0.47629,0.21395 0.47629,0.47629 v 1.42886 c 0,0.26234 -0.21395,0.47629 -0.47629,0.47629 H 0.79845 C 0.53611,2.7036 0.32216,2.48965 0.32216,2.22731 V 0.79845 c 0,-0.26234 0.21395,-0.47629 0.47629,-0.47629 z"
         fill="#4d4948"
         stroke="#4d4948"
         stroke-width="0.042"
         id="path1" />
      <path
         d="M 0.32216,1.98916 H 0.08402"
         fill="none"
         stroke="#e77817"
         stroke-linecap="round"
         stroke-width="0.16802"
         id="path2" />
      <path
         d="M 0.32216,1.75083 H 0.08402"
         fill="none"
         stroke="#e77817"
         stroke-linecap="round"
         stroke-width="0.16802"
         id="path3-5" />
      <path
         d="M 0.32216,1.27473 H 0.08402"
         fill="none"
         stroke="#e77817"
         stroke-linecap="round"
         stroke-width="0.16802"
         id="path4-9" />
      <path
         d="M 0.32216,1.51268 H 0.08402"
         fill="none"
         stroke="#e77817"
         stroke-linecap="round"
         stroke-width="0.16802"
         id="path5-6" />
      <path
         d="M 0.32216,1.0364 H 0.08402"
         fill="none"
         stroke="#e77817"
         stroke-linecap="round"
         stroke-width="0.16802"
         id="path6" />
      <path
         d="M 0.32216,0.79826 H 0.08402"
         fill="none"
         stroke="#e77817"
         stroke-linecap="round"
         stroke-width="0.16802"
         id="path7-2" />
      <path
         d="M 0.32216,2.22721 H 0.08402"
         fill="none"
         stroke="#e77817"
         stroke-linecap="round"
         stroke-width="0.16802"
         id="path8-1" />
      <path
         d="M 2.9417,1.9892 H 2.70356"
         fill="none"
         stroke="#e77817"
         stroke-linecap="round"
         stroke-width="0.16802"
         id="path9-7" />
      <path
         d="M 2.9417,1.7508 H 2.70356"
         fill="none"
         stroke="#e77817"
         stroke-linecap="round"
         stroke-width="0.16802"
         id="path10-8" />
      <path
         d="M 2.9417,1.2747 H 2.70356"
         fill="none"
         stroke="#e77817"
         stroke-linecap="round"
         stroke-width="0.16802"
         id="path11-5" />
      <path
         d="M 2.9417,1.5127 H 2.70356"
         fill="none"
         stroke="#e77817"
         stroke-linecap="round"
         stroke-width="0.16802"
         id="path12" />
      <path
         d="M 2.9417,1.0364 H 2.70356"
         fill="none"
         stroke="#e77817"
         stroke-linecap="round"
         stroke-width="0.16802"
         id="path13" />
      <path
         d="M 2.94173,0.79826 H 2.70359"
         fill="none"
         stroke="#e77817"
         stroke-linecap="round"
         stroke-width="0.16802"
         id="path14" />
      <path
         d="M 2.9417,2.2272 H 2.70356"
         fill="none"
         stroke="#e77817"
         stroke-linecap="round"
         stroke-width="0.16802"
         id="path15" />
      <path
         d="M 1.0366,2.9417 V 2.70356"
         fill="none"
         stroke="#e77817"
         stroke-linecap="round"
         stroke-width="0.16802"
         id="path16" />
      <path
         d="M 1.2749,2.9417 V 2.70356"
         fill="none"
         stroke="#e77817"
         stroke-linecap="round"
         stroke-width="0.16802"
         id="path17" />
      <path
         d="M 1.751,2.9417 V 2.70356"
         fill="none"
         stroke="#e77817"
         stroke-linecap="round"
         stroke-width="0.16802"
         id="path18" />
      <path
         d="M 1.5131,2.9417 V 2.70356"
         fill="none"
         stroke="#e77817"
         stroke-linecap="round"
         stroke-width="0.16802"
         id="path19" />
      <path
         d="M 1.9894,2.9417 V 2.70356"
         fill="none"
         stroke="#e77817"
         stroke-linecap="round"
         stroke-width="0.16802"
         id="path20" />
      <path
         d="M 2.2275,2.9417 V 2.70356"
         fill="none"
         stroke="#e77817"
         stroke-linecap="round"
         stroke-width="0.16802"
         id="path21" />
      <path
         d="M 0.79854,2.94173 V 2.70359"
         fill="none"
         stroke="#e77817"
         stroke-linecap="round"
         stroke-width="0.16802"
         id="path22" />
      <path
         d="M 1.03649,0.32216 V 0.08402"
         fill="none"
         stroke="#e77817"
         stroke-linecap="round"
         stroke-width="0.16802"
         id="path23" />
      <path
         d="M 1.27483,0.32216 V 0.08402"
         fill="none"
         stroke="#e77817"
         stroke-linecap="round"
         stroke-width="0.16802"
         id="path24" />
      <path
         d="M 1.75092,0.32216 V 0.08402"
         fill="none"
         stroke="#e77817"
         stroke-linecap="round"
         stroke-width="0.16802"
         id="path25" />
      <path
         d="M 1.51297,0.32216 V 0.08402"
         fill="none"
         stroke="#e77817"
         stroke-linecap="round"
         stroke-width="0.16802"
         id="path26" />
      <path
         d="M 1.98926,0.32216 V 0.08402"
         fill="none"
         stroke="#e77817"
         stroke-linecap="round"
         stroke-width="0.16802"
         id="path27" />
      <path
         d="M 2.2274,0.32216 V 0.08402"
         fill="none"
         stroke="#e77817"
         stroke-linecap="round"
         stroke-width="0.16802"
         id="path28" />
      <path
         d="M 0.79845,0.32216 V 0.08402"
         fill="none"
         stroke="#e77817"
         stroke-linecap="round"
         stroke-width="0.16802"
         id="path29" />
      <path
         d="m 0.86989,0.5484 h 1.28597 c 0.17708,0 0.32149,0.14441 0.32149,0.32149 v 1.28597 c 0,0.17708 -0.14441,0.32149 -0.32149,0.32149 H 0.86989 C 0.69281,2.47735 0.5484,2.33294 0.5484,2.15586 V 0.86989 c 0,-0.17708 0.14441,-0.32149 0.32149,-0.32149 z"
         fill="#dededd"
         stroke="#007cc3"
         stroke-width="0.084"
         id="path30" />
      <path
         d="M 2.3414,1.77134 H 2.23354 C 2.18822,1.77154 2.13139,1.70914 2.05592,1.70985 1.94566,1.71104 1.88995,1.81782 1.78429,1.81666 1.71224,1.81591 1.71112,1.77021 1.68442,1.72495 l -0.06853,-1.19e-5 c 0.01975,0.04527 0.04762,0.14395 0.16719,0.14515 0.11957,0.0012 0.15554,-0.10565 0.27171,-0.10565 0.06731,0 0.11841,0.05913 0.17989,0.05913 h 0.1067 v -0.05222 z"
         fill="#e77817"
         id="path31" />
      <path
         d="m 0.72852,1.77134 h 0.08361 c 0.04528,2e-4 0.10216,-0.0622 0.17762,-0.06149 0.11027,0.00119 0.16607,0.10797 0.27171,0.10681 0.07198,-7.5e-4 0.07315,-0.04645 0.09983,-0.09171 l 0.06849,-1.19e-5 c -0.01972,0.04527 -0.04757,0.14395 -0.16719,0.14515 -0.11962,0.0012 -0.15554,-0.10565 -0.27164,-0.10565 -0.06735,0 -0.11844,0.05913 -0.17998,0.05913 H 0.72851 v -0.05222 z"
         fill="#e77817"
         id="path32" />
      <path
         d="M 1.6269,1.47132 H 1.56183 L 1.5341,1.18091 C 1.53243,1.16611 1.52487,1.16723 1.52487,1.16723 c 0,0 -0.00757,-0.00112 -0.00936,0.01368 L 1.48769,1.47124 H 1.42262 L 1.46087,1.15575 C 1.47169,1.07987 1.52495,1.08312 1.52495,1.08312 c 0,0 0.05305,-0.00344 0.06389,0.07263 z"
         fill="#e77817"
         id="path33" />
      <path
         d="m 0.79805,1.68754 c 0.03383,0 0.06145,-0.03264 0.06145,-0.10465 0,-0.04098 -0.00775,-0.10213 -0.06083,-0.10213 -0.05308,0 -0.06332,0.0509 -0.06332,0.1046 0,0.0537 0.01304,0.10218 0.06239,0.10218 z m 3.1e-4,-0.04102 c -0.01087,0 -0.01553,-0.01584 -0.01491,-0.06239 6.2e-4,-0.04655 0.00529,-0.06239 0.01522,-0.06239 0.00993,0 0.01273,0.0208 0.01273,0.06239 0,0.04532 -0.00311,0.06239 -0.01273,0.06239 z M 0.92066,1.685 h 0.0475 V 1.48323 H 0.92563 L 0.87782,1.50683 0.88558,1.54439 0.92004,1.52762 h 6.2e-4 z m 0.15303,0.00254 c 0.03384,0 0.06146,-0.03264 0.06146,-0.10465 0,-0.04098 -0.00776,-0.10213 -0.06085,-0.10213 -0.05309,0 -0.06332,0.0509 -0.06332,0.1046 0,0.0537 0.01304,0.10218 0.06239,0.10218 h 3.1e-4 z M 1.074,1.64652 c -0.01086,0 -0.01551,-0.01584 -0.0149,-0.06239 6.1e-4,-0.04655 0.00527,-0.06239 0.01521,-0.06239 0.00994,0 0.01273,0.0208 0.01273,0.06239 0,0.04532 -0.00311,0.06239 -0.01273,0.06239 z M 1.19631,1.685 H 1.2438 V 1.48323 H 1.20128 L 1.15347,1.50683 1.16123,1.54439 1.19568,1.52762 h 6.3e-4 z m 0.15303,0.00254 c 0.03383,0 0.06145,-0.03264 0.06145,-0.10465 0,-0.04098 -0.00775,-0.10213 -0.06083,-0.10213 -0.05308,0 -0.06332,0.0509 -0.06332,0.1046 0,0.0537 0.01304,0.10218 0.06239,0.10218 z m 3.1e-4,-0.04102 c -0.01087,0 -0.01553,-0.01584 -0.01491,-0.06239 6.2e-4,-0.04655 0.00529,-0.06239 0.01522,-0.06239 0.00993,0 0.01273,0.0208 0.01273,0.06239 0,0.04532 -0.00311,0.06239 -0.01273,0.06239 z M 1.47195,1.685 h 0.0475 V 1.48323 H 1.47692 L 1.42911,1.50683 1.43687,1.54439 1.47133,1.52762 h 6.2e-4 z m 0.15303,0.00254 c 0.03384,0 0.06146,-0.03264 0.06146,-0.10465 0,-0.04098 -0.00776,-0.10213 -0.06085,-0.10213 -0.05309,0 -0.06332,0.0509 -0.06332,0.1046 0,0.0537 0.01304,0.10218 0.06239,0.10218 h 3.1e-4 z M 1.62529,1.64652 C 1.61443,1.64652 1.60978,1.63068 1.61039,1.58413 1.611,1.53758 1.61566,1.52174 1.6256,1.52174 c 0.00994,0 0.01273,0.0208 0.01273,0.06239 0,0.04532 -0.00311,0.06239 -0.01273,0.06239 z M 1.74759,1.685 h 0.0475 V 1.48323 H 1.75257 L 1.70476,1.50683 1.71252,1.54439 1.74697,1.52762 h 6.2e-4 z m 0.15304,0.00254 c 0.03383,0 0.06145,-0.03264 0.06145,-0.10465 0,-0.04098 -0.00775,-0.10213 -0.06083,-0.10213 -0.05308,0 -0.06332,0.0509 -0.06332,0.1046 0,0.0537 0.01304,0.10218 0.06239,0.10218 z m 3.1e-4,-0.04102 c -0.01087,0 -0.01553,-0.01584 -0.01491,-0.06239 6.2e-4,-0.04655 0.00529,-0.06239 0.01522,-0.06239 0.00993,0 0.01273,0.0208 0.01273,0.06239 0,0.04532 -0.00311,0.06239 -0.01273,0.06239 z M 2.02324,1.685 h 0.0475 V 1.48323 H 2.02821 L 1.9804,1.50683 1.98816,1.54439 2.02262,1.52762 h 6.2e-4 z m 0.15303,0.00254 c 0.03384,0 0.06146,-0.03264 0.06146,-0.10465 0,-0.04098 -0.00776,-0.10213 -0.06085,-0.10213 -0.05309,0 -0.06332,0.0509 -0.06332,0.1046 0,0.0537 0.01304,0.10218 0.06239,0.10218 h 3.1e-4 z m 3.1e-4,-0.04102 c -0.01086,0 -0.01551,-0.01584 -0.0149,-0.06239 6.1e-4,-0.04655 0.00527,-0.06239 0.01521,-0.06239 0.00994,0 0.01273,0.0208 0.01273,0.06239 0,0.04532 -0.00311,0.06239 -0.01273,0.06239 z M 2.29888,1.685 h 0.0475 V 1.48323 H 2.30386 L 2.25605,1.50683 2.26381,1.54439 2.29826,1.52762 h 6.2e-4 z"
         fill="#007cc3"
         fill-rule="nonzero"
         id="path34" />
    </g>
    <rect
       style="fill:#ffffff;fill-opacity:1;stroke:#000000;stroke-width:0.2;stroke-linecap:round;stroke-linejoin:round;stroke-dasharray:none;stroke-dashoffset:0;stroke-opacity:1;paint-order:stroke fill markers"
       id="rect1"
       width="21.000002"
       height="20"
       x="14"
       y="10" />
    <text
       xml:space="preserve"
       style="font-style:normal;font-variant:normal;font-weight:normal;font-stretch:normal;font-size:3.52778px;line-height:1.25;font-family:sans-serif;-inkscape-font-specification:'sans-serif, Normal';font-variant-ligatures:normal;font-variant-caps:normal;font-variant-numeric:normal;font-variant-east-asian:normal;fill:#000000;fill-opacity:1;stroke:none;stroke-width:0.264583"
       x="24.433681"
       y="33.234341"
       id="text1"><tspan
         sodipodi:role="line"
         style="font-style:normal;font-variant:normal;font-weight:normal;font-stretch:normal;font-size:3.52778px;font-family:sans-serif;-inkscape-font-specification:'sans-serif, Normal';font-variant-ligatures:normal;font-variant-caps:normal;font-variant-numeric:normal;font-variant-east-asian:normal;text-align:center;text-anchor:middle;stroke-width:0.264583"
         x="24.433681"
         y="33.234341"
         id="tspan7">rewarding-service</tspan></text>
    <text
       xml:space="preserve"
       style="font-style:normal;font-variant:normal;font-weight:normal;font-stretch:normal;font-size:3.52778px;line-height:1.25;font-family:sans-serif;-inkscape-font-specification:'sans-serif, Normal';font-variant-ligatures:normal;font-variant-caps:normal;font-variant-numeric:normal;font-variant-east-asian:normal;fill:#000000;fill-opacity:1;stroke:none;stroke-width:0.264583"
       x="115.72688"
       y="40.146645"
       id="text1-0"><tspan
         sodipodi:role="line"
         style="font-style:normal;font-variant:normal;font-weight:normal;font-stretch:normal;font-size:3.52778px;font-family:sans-serif;-inkscape-font-specification:'sans-serif, Normal';font-variant-ligatures:normal;font-variant-caps:normal;font-variant-numeric:normal;font-variant-east-asian:normal;text-align:center;text-anchor:middle;stroke-width:0.264583"
         x="115.72688"
         y="40.146645"
         id="tspan2-0">Sensor owner</tspan></text>
    <rect
       style="fill:#ffffff;fill-opacity:1;stroke:#000000;stroke-width:0.2;stroke-linecap:round;stroke-linejoin:round;stroke-dasharray:none;stroke-dashoffset:0;stroke-opacity:1;paint-order:stroke fill markers"
       id="rect1-6"
       width="25.000002"
       height="10"
       x="60"
       y="5" />
    <text
       xml:space="preserve"
       style="font-style:normal;font-variant:normal;font-weight:normal;font-stretch:normal;font-size:3.52778px;line-height:1.25;font-family:sans-serif;-inkscape-font-specification:'sans-serif, Normal';font-variant-ligatures:normal;font-variant-caps:normal;font-variant-numeric:normal;font-variant-east-asian:normal;fill:#000000;fill-opacity:1;stroke:none;stroke-width:0.264583"
       x="72.573212"
       y="10.97324"
       id="text1-1"><tspan
         sodipodi:role="line"
         style="font-style:normal;font-variant:normal;font-weight:normal;font-stretch:normal;font-size:3.52778px;font-family:sans-serif;-inkscape-font-specification:'sans-serif, Normal';font-variant-ligatures:normal;font-variant-caps:normal;font-variant-numeric:normal;font-variant-east-asian:normal;text-align:center;text-anchor:middle;stroke-width:0.264583"
         x="72.573212"
         y="10.97324"
         id="tspan2-9">ChirpVM</tspan></text>
    <text
       xml:space="preserve"
       style="font-style:normal;font-variant:normal;font-weight:normal;font-stretch:normal;font-size:2.11667px;line-height:1.25;font-family:sans-serif;-inkscape-font-specification:'sans-serif, Normal';font-variant-ligatures:normal;font-variant-caps:normal;font-variant-numeric:normal;font-variant-east-asian:normal;fill:#000000;fill-opacity:1;stroke:none;stroke-width:0.264583"
       x="45.874844"
       y="19.725332"
       id="text1-1-7"
       transform="rotate(-10.081416)"><tspan
         sodipodi:role="line"
         style="font-style:normal;font-variant:normal;font-weight:normal;font-stretch:normal;font-size:2.11667px;font-family:sans-serif;-inkscape-font-specification:'sans-serif, Normal';font-variant-ligatures:normal;font-variant-caps:normal;font-variant-numeric:normal;font-variant-east-asian:normal;text-align:center;text-anchor:middle;stroke-width:0.264583"
         x="45.874844"
         y="19.725332"
         id="tspan2-9-76">sensor data</tspan></text>
    <text
       xml:space="preserve"
       style="font-style:normal;font-variant:normal;font-weight:normal;font-stretch:normal;font-size:2.11667px;line-height:1.25;font-family:sans-serif;-inkscape-font-specification:'sans-serif, Normal';font-variant-ligatures:normal;font-variant-caps:normal;font-variant-numeric:normal;font-variant-east-asian:normal;fill:#000000;fill-opacity:1;stroke:none;stroke-width:0.264583"
       x="99.464722"
       y="-19.256044"
       id="text1-1-7-8"
       transform="rotate(18.420322)"><tspan
         sodipodi:role="line"
         style="font-style:normal;font-variant:normal;font-weight:normal;font-stretch:normal;font-size:2.11667px;font-family:sans-serif;-inkscape-font-specification:'sans-serif, Normal';font-variant-ligatures:normal;font-variant-caps:normal;font-variant-numeric:normal;font-variant-east-asian:normal;text-align:center;text-anchor:middle;stroke-width:0.264583"
         x="99.464722"
         y="-19.256044"
         id="tspan2-9-76-96">sensor data via LoRa</tspan></text>
    <text
       xml:space="preserve"
       style="font-style:normal;font-variant:normal;font-weight:normal;font-stretch:normal;font-size:2.11667px;line-height:1.25;font-family:sans-serif;-inkscape-font-specification:'sans-serif, Normal';font-variant-ligatures:normal;font-variant-caps:normal;font-variant-numeric:normal;font-variant-east-asian:normal;fill:#000000;fill-opacity:1;stroke:none;stroke-width:0.264583"
       x="51.040276"
       y="18.239244"
       id="text1-1-7-3"
       transform="rotate(9.4196644)"><tspan
         sodipodi:role="line"
         style="font-style:normal;font-variant:normal;font-weight:normal;font-stretch:normal;font-size:2.11667px;font-family:sans-serif;-inkscape-font-specification:'sans-serif, Normal';font-variant-ligatures:normal;font-variant-caps:normal;font-variant-numeric:normal;font-variant-east-asian:normal;text-align:center;text-anchor:middle;stroke-width:0.264583"
         x="51.040276"
         y="18.239244"
         id="tspan2-9-76-9">MEP-3355 memo</tspan><tspan
         sodipodi:role="line"
         style="font-style:normal;font-variant:normal;font-weight:normal;font-stretch:normal;font-size:2.11667px;font-family:sans-serif;-inkscape-font-specification:'sans-serif, Normal';font-variant-ligatures:normal;font-variant-caps:normal;font-variant-numeric:normal;font-variant-east-asian:normal;text-align:center;text-anchor:middle;stroke-width:0.264583"
         x="51.040276"
         y="20.885082"
         id="tspan6">and reward</tspan></text>
    <rect
       style="fill:#ffffff;fill-opacity:1;stroke:#000000;stroke-width:0.2;stroke-linecap:round;stroke-linejoin:round;stroke-dasharray:none;stroke-dashoffset:0;stroke-opacity:1;paint-order:stroke fill markers"
       id="rect1-6-9"
       width="25.000002"
       height="10"
       x="60"
       y="25" />
    <text
       xml:space="preserve"
       style="font-style:normal;font-variant:normal;font-weight:normal;font-stretch:normal;font-size:3.52778px;line-height:1.25;font-family:sans-serif;-inkscape-font-specification:'sans-serif, Normal';font-variant-ligatures:normal;font-variant-caps:normal;font-variant-numeric:normal;font-variant-east-asian:normal;fill:#000000;fill-opacity:1;stroke:none;stroke-width:0.264583"
       x="72.573212"
       y="30.97324"
       id="text1-1-1"><tspan
         sodipodi:role="line"
         style="font-style:normal;font-variant:normal;font-weight:normal;font-stretch:normal;font-size:3.52778px;font-family:sans-serif;-inkscape-font-specification:'sans-serif, Normal';font-variant-ligatures:normal;font-variant-caps:normal;font-variant-numeric:normal;font-variant-east-asian:normal;text-align:center;text-anchor:middle;stroke-width:0.264583"
         x="72.573212"
         y="30.97324"
         id="tspan2-9-7">Moonchain</tspan></text>
    <path
       style="fill:none;stroke:#000000;stroke-width:0.264583px;stroke-linecap:butt;stroke-linejoin:miter;stroke-opacity:1;marker-end:url(#ConcaveTriangle)"
       d="M 60.000002,9.9999997 37.000001,14"
       id="path3"
       sodipodi:nodetypes="cc" />
    <path
       style="fill:none;stroke:#000000;stroke-width:0.264583px;stroke-linecap:butt;stroke-linejoin:miter;stroke-dasharray:1, 1;stroke-dashoffset:0;stroke-opacity:1;marker-end:url(#ConcaveTriangle-7)"
       d="M 111,17 98,13 99,16 87.000002,11"
       id="path3-8"
       sodipodi:nodetypes="cccc" />
    <path
       style="fill:none;stroke:#000000;stroke-width:0.264583px;stroke-linecap:butt;stroke-linejoin:miter;stroke-opacity:1;marker-end:url(#marker5)"
       d="m 34.999999,24.999999 23.000003,4"
       id="path4"
       sodipodi:nodetypes="cc" />
    <path
       style="fill:none;stroke:#000000;stroke-width:0.264583px;stroke-linecap:butt;stroke-linejoin:miter;stroke-opacity:1;marker-end:url(#marker5-3)"
       d="M 85.000002,31.999999 H 106"
       id="path4-6"
       sodipodi:nodetypes="cc" />
    <path
       style="fill:none;stroke:#000000;stroke-width:0.264583px;stroke-linecap:butt;stroke-linejoin:miter;stroke-opacity:1;marker-end:url(#marker5-3-0)"
       d="M 107.65228,27.992914 H 86.652289"
       id="path4-6-5"
       sodipodi:nodetypes="cc" />
    <g
       id="g5"
       transform="matrix(0.26201018,0,0,0.26201018,33.095846,33.629883)"
       style="stroke-width:3.81665">
      <path
         d="m 394.38,91.125 c 26.469,30.479 52.94,60.956 79.406,91.438 -25.934,26.361 -51.885,52.695 -77.844,79.031 69.964,14.561 124.01,72.514 132.78,144.44 h -43.75 l 115.81,114.09 131.38,-114.09 h -34.219 c -10.005,-165.64 -139.59,-299 -303.56,-314.91 z"
         fill-opacity=".96471"
         filter="url(#b)"
         id="path8"
         style="fill:#00d5ab;fill-opacity:1;stroke-width:14.3327"
         transform="matrix(0.07045594,0,0,0.07045594,-58.161992,-82.220604)" />
      <path
         d="m 351.53,50.906 v 38.75 C 182.99,94.5339 45.42,223.106 26.5,387.746 c 29.11,-25.28 58.244,-50.569 87.281,-75.781 l 0.65625,-0.5625 0.75,-0.65625 c 27.171,26.71 54.33,53.445 81.469,80.188 15.72,-72.81 78.474,-128.13 154.88,-132.56 v 39.719 l 114.09,-115.81 -114.09,-131.38 z"
         fill-rule="evenodd"
         filter="url(#c)"
         id="path9"
         style="fill:#00d5ab;fill-opacity:1;stroke-width:14.3327"
         transform="matrix(0.07045594,0,0,0.07045594,-58.161992,-82.220604)" />
      <path
         d="M 114.91,318.91 -16.43,432.97 h 40.781 c 3.1989,173.8 137.92,315.43 308.81,329.62 -26.595,-30.624 -53.189,-61.249 -79.781,-91.875 25.711,-26.122 51.432,-52.235 77.156,-78.344 -76.331,-14.144 -134.62,-79.701 -137.56,-159.41 h 37.781 l -115.84,-114.06 z"
         fill-rule="evenodd"
         filter="url(#d)"
         id="path10"
         style="fill:#00d5ab;fill-opacity:1;stroke-width:14.3327"
         transform="matrix(0.07045594,0,0,0.07045594,-58.161992,-82.220604)" />
      <path
         d="m 698.16,443.47 c -32.553,28.27 -65.101,56.545 -97.656,84.812 -24.374,-23.991 -48.761,-47.968 -73.125,-71.969 -13.208,74.403 -75.201,131.93 -151.75,138.31 v -39.438 l -114.09,115.81 114.09,131.38 v -38.906 c 174.03,-7.2123 314,-146.32 322.53,-320 z"
         fill-rule="evenodd"
         filter="url(#a)"
         id="path11"
         style="fill:#00d5ab;fill-opacity:1;stroke-width:14.3327"
         transform="matrix(0.07045594,0,0,0.07045594,-58.161992,-82.220604)" />
    </g>
    <text
       xml:space="preserve"
       style="font-style:normal;font-variant:normal;font-weight:normal;font-stretch:normal;font-size:1.41111px;line-height:1.25;font-family:sans-serif;-inkscape-font-specification:'sans-serif, ';font-variant-ligatures:normal;font-variant-caps:normal;font-variant-numeric:normal;font-variant-east-asian:normal;fill:#000000;fill-opacity:1;stroke:none;stroke-width:0.264583"
       x="24.559944"
       y="19.644123"
       id="text1-6"><tspan
         sodipodi:role="line"
         style="font-style:normal;font-variant:normal;font-weight:normal;font-stretch:normal;font-size:1.41111px;font-family:sans-serif;-inkscape-font-specification:'sans-serif, ';font-variant-ligatures:normal;font-variant-caps:normal;font-variant-numeric:normal;font-variant-east-asian:normal;text-align:center;text-anchor:middle;stroke-width:0.264583"
         x="24.559944"
         y="19.644123"
         id="tspan2-1">Calculate reward</tspan><tspan
         sodipodi:role="line"
         style="font-style:normal;font-variant:normal;font-weight:normal;font-stretch:normal;font-size:1.41111px;font-family:sans-serif;-inkscape-font-specification:'sans-serif, ';font-variant-ligatures:normal;font-variant-caps:normal;font-variant-numeric:normal;font-variant-east-asian:normal;text-align:center;text-anchor:middle;stroke-width:0.264583"
         x="24.559944"
         y="21.40801"
         id="tspan5">from sensor data.</tspan></text>
    <text
       xml:space="preserve"
       style="font-style:normal;font-variant:normal;font-weight:normal;font-stretch:normal;font-size:2.11667px;line-height:1.25;font-family:sans-serif;-inkscape-font-specification:'sans-serif, Normal';font-variant-ligatures:normal;font-variant-caps:normal;font-variant-numeric:normal;font-variant-east-asian:normal;fill:#000000;fill-opacity:1;stroke:none;stroke-width:0.264583"
       x="24.5"
       y="35.916222"
       id="text1-6-4"><tspan
         sodipodi:role="line"
         style="font-style:normal;font-variant:normal;font-weight:normal;font-stretch:normal;font-size:2.11667px;font-family:sans-serif;-inkscape-font-specification:'sans-serif, Normal';font-variant-ligatures:normal;font-variant-caps:normal;font-variant-numeric:normal;font-variant-east-asian:normal;text-align:center;text-anchor:middle;stroke-width:0.264583"
         x="24.5"
         y="35.916222"
         id="tspan8">(Host by Sensor Token Distributor)</tspan></text>
    <text
       xml:space="preserve"
       style="font-style:normal;font-variant:normal;font-weight:normal;font-stretch:normal;font-size:2.11667px;line-height:1.25;font-family:sans-serif;-inkscape-font-specification:'sans-serif, Normal';font-variant-ligatures:normal;font-variant-caps:normal;font-variant-numeric:normal;font-variant-east-asian:normal;fill:#000000;fill-opacity:1;stroke:none;stroke-width:0.264583"
       x="93.315804"
       y="34.123753"
       id="text1-6-4-4"><tspan
         sodipodi:role="line"
         style="font-style:normal;font-variant:normal;font-weight:normal;font-stretch:normal;font-size:2.11667px;font-family:sans-serif;-inkscape-font-specification:'sans-serif, Normal';font-variant-ligatures:normal;font-variant-caps:normal;font-variant-numeric:normal;font-variant-east-asian:normal;text-align:center;text-anchor:middle;stroke-width:0.264583"
         x="93.315804"
         y="34.123753"
         id="tspan9">Rewarded</tspan><tspan
         sodipodi:role="line"
         style="font-style:normal;font-variant:normal;font-weight:normal;font-stretch:normal;font-size:2.11667px;font-family:sans-serif;-inkscape-font-specification:'sans-serif, Normal';font-variant-ligatures:normal;font-variant-caps:normal;font-variant-numeric:normal;font-variant-east-asian:normal;text-align:center;text-anchor:middle;stroke-width:0.264583"
         x="93.315804"
         y="36.769588"
         id="tspan10">Sensor Token</tspan></text>
    <text
       xml:space="preserve"
       style="font-style:normal;font-variant:normal;font-weight:normal;font-stretch:normal;font-size:2.11667px;line-height:1.25;font-family:sans-serif;-inkscape-font-specification:'sans-serif, Normal';font-variant-ligatures:normal;font-variant-caps:normal;font-variant-numeric:normal;font-variant-east-asian:normal;fill:#000000;fill-opacity:1;stroke:none;stroke-width:0.264583"
       x="103.57507"
       y="27.383829"
       id="text1-6-4-4-9"><tspan
         sodipodi:role="line"
         style="font-style:normal;font-variant:normal;font-weight:normal;font-stretch:normal;font-size:2.11667px;font-family:sans-serif;-inkscape-font-specification:'sans-serif, Normal';font-variant-ligatures:normal;font-variant-caps:normal;font-variant-numeric:normal;font-variant-east-asian:normal;text-align:center;text-anchor:middle;stroke-width:0.264583"
         x="103.57507"
         y="27.383829"
         id="tspan10-6">Claim</tspan></text>
    <g
       id="g9"
       transform="translate(-14.999997)">
      <circle
         style="fill:#ffffff;fill-opacity:1;stroke:#4d4d4d;stroke-width:0.86;stroke-opacity:1;paint-order:markers fill stroke"
         id="path877"
         cx="130"
         cy="30.114628"
         r="6.7345037" />
      <circle
         style="fill:none;stroke:#0573e1;stroke-width:0.859724;stroke-opacity:1;paint-order:stroke markers fill"
         id="circle856"
         cx="130"
         cy="27.822031"
         r="2.1779671" />
      <path
         id="rect14168"
         style="fill:none;fill-opacity:1;stroke:#0573e1;stroke-width:0.859724;stroke-miterlimit:4;stroke-dasharray:none;stroke-opacity:1;paint-order:stroke markers fill"
         d="m 135.42042,34.104189 c -0.18564,-1.55873 -1.4059,-2.790855 -2.95884,-2.994667 A 3.3242656,3.3242656 0 0 1 130,32.207293 3.3242656,3.3242656 0 0 1 127.53848,31.109522 v 0 c -1.55294,0.203808 -2.77325,1.435935 -2.9589,2.994667" />
      <circle
         style="fill:none;fill-opacity:1;stroke:#4d4d4d;stroke-width:0.86;stroke-opacity:1;paint-order:markers fill stroke"
         id="path877-8"
         cx="130"
         cy="30.114628"
         r="6.7345037" />
    </g>
  </g>
</svg>
